HIERARCHY
ROOT Hips
{
     OFFSET 59.69950 88.04740 -16.06710
     CHANNELS 6 Xposition Yposition Zposition Zrotation Xrotation Yrotation
     JOINT Spine
     {
          OFFSET 0.00000 11.89050 0.00000
          CHANNELS 3 Zrotation Xrotation Yrotation
          JOINT Spine1
          {
               OFFSET 0.00000 25.65740 0.12766
               CHANNELS 3 Zrotation Xrotation Yrotation
               JOINT HEad
               {
                    OFFSET 0.00000 8.73416 0.01134
                    CHANNELS 3 Zrotation Xrotation Yrotation
                    End Site
                    {
                         OFFSET -0.29000 12.77420 2.51395
                    }
               }
               JOINT LeftShoulder1
               {
                    OFFSET 8.99000 -0.36225 -0.22000
                    CHANNELS 3 Zrotation Xrotation Yrotation
                    JOINT LeftArm
                    {
                         OFFSET 10.28270 -0.00338 0.32212
                         CHANNELS 3 Zrotation Xrotation Yrotation
                         JOINT LeftForeArm
                         {
                              OFFSET 32.76690 0.09914 -1.42434
                              CHANNELS 3 Zrotation Xrotation Yrotation
                              JOINT LeftHand
                              {
                                   OFFSET 27.56430 0.08536 1.02216
                                   CHANNELS 3 Zrotation Xrotation Yrotation
                                   End Site
                                   {
                                        OFFSET 16.74430 -0.60000 1.50291
                                   }
                              }
                         }
                    }
               }
               JOINT RightShoulder
               {
                    OFFSET -8.99000 -0.36225 -0.22000
                    CHANNELS 3 Zrotation Xrotation Yrotation
                    JOINT RightArm
                    {
                         OFFSET -10.28270 -0.00338 0.32212
                         CHANNELS 3 Zrotation Xrotation Yrotation
                         JOINT RightForeArm
                         {
                              OFFSET -32.89710 0.09914 -1.42434
                              CHANNELS 3 Zrotation Xrotation Yrotation
                              JOINT RightHand
                              {
                                   OFFSET -27.49210 0.08536 1.02216
                                   CHANNELS 3 Zrotation Xrotation Yrotation
                                   End Site
                                   {
                                        OFFSET -16.63120 -0.60000 1.50291
                                   }
                              }
                         }
                    }
               }
          }
     }
     JOINT LeftUpLeg
     {
          OFFSET 8.94580 -8.66707 0.10165
          CHANNELS 3 Zrotation Xrotation Yrotation
          JOINT LeftLeg
          {
               OFFSET 0.00000 -44.42270 1.37270
               CHANNELS 3 Zrotation Xrotation Yrotation
               JOINT LeftFoot
               {
                    OFFSET -0.25355 -42.09240 -1.46059
                    CHANNELS 3 Zrotation Xrotation Yrotation
                    JOINT LeftToes
                    {
                         OFFSET -0.04000 -4.41509 8.49910
                         CHANNELS 3 Zrotation Xrotation Yrotation
                         End Site
                         {
                              OFFSET 0.08000 -0.04745 9.77979
                         }
                    }
               }
          }
     }
     JOINT RightUpLeg
     {
          OFFSET -8.94580 -8.66707 0.10165
          CHANNELS 3 Zrotation Xrotation Yrotation
          JOINT RightLeg
          {
               OFFSET 0.00000 -44.42270 1.37270
               CHANNELS 3 Zrotation Xrotation Yrotation
               JOINT RightFoot
               {
                    OFFSET 0.25355 -42.09240 -1.46059
                    CHANNELS 3 Zrotation Xrotation Yrotation
                    JOINT RightToes
                    {
                         OFFSET 0.04000 -4.41509 8.49910
                         CHANNELS 3 Zrotation Xrotation Yrotation
                         End Site
                         {
                              OFFSET -0.08000 -0.13745 9.77979
                         }
                    }
               }
          }
     }
}
MOTION
Frames: 12
Frame Time: 0.01667
8.82987 101.68800 -47.09550 -0.05565 -5.62179 -4.52705 1.00620 3.23690 0.18668 0.11203 6.41472 0.64262 0.33973 -4.44487 -4.63009 0.00000 0.00000 0.00000 -6.28429 -20.42900 -3.12290 174.22600 -25.27390 -172.00600 -17.42170 2.26157 49.79110 1.98827 0.24774 -0.01275 8.98399 -15.75570 15.00970 -0.59075 -4.94470 1.67463 8.44313 10.68500 5.59345 6.71228 6.19342 0.97115 -1.31784 7.30102 3.98588 -3.91029 -14.50350 -0.16507 8.92654 12.16190 1.29521 -7.38575 2.83723 -0.72671 -0.46657 10.07730 -2.17184 20.64310 -26.18960 3.20895 18.76820 42.27240 -28.97120 
8.82280 101.69200 -47.09090 -0.07294 -5.62258 -4.54589 1.00191 3.26608 0.19857 0.09741 6.47314 0.66775 0.27252 -4.60304 -4.62468 0.00000 0.00000 0.00000 -6.34406 -20.46860 -3.18933 174.30800 -25.39790 -171.95200 -17.48290 2.23531 49.79040 2.08996 0.24435 -0.09333 8.95479 -15.84110 15.12730 -0.60895 -5.22205 1.67575 8.62787 10.69490 5.51931 6.73392 6.20977 1.02986 -1.29137 7.27598 4.03408 -3.95652 -14.38190 -0.16432 8.64838 11.79970 1.14261 -7.36214 2.84391 -0.68570 -0.46194 10.07200 -2.21844 20.65510 -26.21620 3.21608 18.83550 42.36800 -29.00000 
8.81557 101.69500 -47.08550 -0.08640 -5.62261 -4.56271 1.00074 3.28877 0.20348 0.08616 6.51852 0.67926 0.19725 -4.73396 -4.62052 0.00000 0.00000 0.00000 -6.39953 -20.48740 -3.22687 174.38200 -25.48040 -171.90199 -17.54860 2.20885 49.78030 2.16442 0.24187 -0.15076 8.93881 -15.91630 15.23240 -0.61596 -5.55635 1.67732 8.82858 10.70660 5.45408 6.75210 6.22523 1.08210 -1.27392 7.25463 4.05203 -3.99508 -14.30150 -0.16425 8.47313 11.57330 1.03827 -7.34403 2.84860 -0.64758 -0.45539 10.06830 -2.25734 20.65050 -26.23770 3.21936 18.88700 42.44310 -29.01870 
8.80893 101.69600 -47.07920 -0.09491 -5.61973 -4.57709 1.00237 3.30196 0.19868 0.07851 6.54487 0.67154 0.12211 -4.84438 -4.61005 0.00000 0.00000 0.00000 -6.44132 -20.46620 -3.22164 174.43900 -25.48780 -171.85800 -17.61800 2.18133 49.76770 2.20374 0.24097 -0.17410 8.94115 -15.96050 15.32320 -0.62155 -5.87892 1.66910 9.00172 10.71920 5.43034 6.76569 6.23672 1.12165 -1.27077 7.24052 4.03801 -4.00524 -14.28580 -0.16438 8.44493 11.54120 0.98965 -7.33253 2.84873 -0.61514 -0.44768 10.06740 -2.28102 20.63630 -26.25560 3.22028 18.92100 42.48550 -29.04310 
8.80426 101.69600 -47.07320 -0.10054 -5.61028 -4.59007 1.00498 3.30609 0.18651 0.07365 6.55316 0.64874 0.05986 -4.95031 -4.58837 0.00000 0.00000 0.00000 -6.46223 -20.39870 -3.17993 174.47701 -25.41070 -171.81599 -17.67590 2.15728 49.76260 2.21792 0.24158 -0.16770 8.95365 -15.96080 15.40030 -0.63677 -6.05497 1.64718 9.07477 10.72940 5.47703 6.77603 6.23886 1.14745 -1.27781 7.23318 4.01043 -3.99126 -14.31450 -0.16441 8.51148 11.63300 0.98388 -7.32465 2.83969 -0.58945 -0.44121 10.07030 -2.29018 20.63100 -26.27190 3.22245 18.94390 42.50020 -29.08280 
8.80204 101.69600 -47.06910 -0.10559 -5.59391 -4.60084 1.00858 3.30409 0.17201 0.07139 6.54924 0.62088 0.00827 -5.03112 -4.57063 0.00000 0.00000 0.00000 -6.46586 -20.30130 -3.12736 174.50200 -25.27200 -171.77699 -17.69400 2.14751 49.77290 2.21881 0.24296 -0.14590 8.96296 -15.92670 15.45700 -0.65308 -6.06475 1.62357 9.03771 10.73540 5.58585 6.78465 6.22977 1.16486 -1.28388 7.22741 3.98126 -3.99452 -14.33620 -0.16524 8.57243 11.71170 1.01870 -7.31746 2.81952 -0.57064 -0.43742 10.07880 -2.29416 20.64310 -26.28440 3.22694 18.95740 42.50030 -29.12050 
8.80123 101.69400 -47.06800 -0.10946 -5.57793 -4.60559 1.01322 3.30105 0.15954 0.07085 6.54321 0.59698 -0.04943 -5.03935 -4.57937 0.00000 0.00000 0.00000 -6.45997 -20.20610 -3.09293 174.51500 -25.10750 -171.74800 -17.64770 2.16015 49.81150 2.21141 0.24427 -0.12344 8.96400 -15.88830 15.48680 -0.65408 -6.00302 1.61272 8.95265 10.73920 5.71763 6.79118 6.21643 1.17370 -1.28359 7.21956 3.95467 -4.03920 -14.32420 -0.16753 8.57972 11.71250 1.08963 -7.31156 2.79660 -0.56043 -0.43613 10.09160 -2.29673 20.66250 -26.29010 3.23140 18.95690 42.48840 -29.13920 
8.80031 101.69200 -47.06890 -0.11052 -5.57039 -4.60278 1.01621 3.30150 0.15077 0.07225 6.54423 0.57987 -0.12405 -4.96162 -4.60717 0.00000 0.00000 0.00000 -6.44594 -20.14290 -3.08357 174.50600 -24.94600 -171.74100 -17.53940 2.19241 49.88800 2.19149 0.24498 -0.10747 8.96816 -15.87460 15.49660 -0.63938 -5.93737 1.61958 8.88308 10.74240 5.82928 6.79550 6.20761 1.16300 -1.28473 7.21396 3.94153 -4.08951 -14.30530 -0.16994 8.57213 11.69180 1.16963 -7.30876 2.78533 -0.55949 -0.43648 10.09800 -2.29336 20.66670 -26.28630 3.23141 18.94380 42.46620 -29.13980 
8.79817 101.69200 -47.06990 -0.11067 -5.56858 -4.59674 1.01477 3.30569 0.14542 0.07938 6.55287 0.56762 -0.20865 -4.85209 -4.61606 0.00000 0.00000 0.00000 -6.42347 -20.13030 -3.08337 174.46600 -24.81400 -171.75000 -17.40870 2.22992 49.98890 2.15116 0.24496 -0.09812 8.99298 -15.88040 15.50610 -0.63097 -5.88640 1.63679 8.85918 10.74590 5.89621 6.80136 6.20116 1.13107 -1.29706 7.22026 3.95401 -4.08354 -14.32610 -0.17022 8.60790 11.73610 1.20593 -7.30632 2.79048 -0.56255 -0.43732 10.08330 -2.28619 20.64390 -26.27060 3.22446 18.92590 42.44410 -29.12680 
8.79439 101.69400 -47.06900 -0.11577 -5.56157 -4.59357 1.01048 3.31000 0.14208 0.09757 6.56201 0.55666 -0.28686 -4.79706 -4.57683 0.00000 0.00000 0.00000 -6.40161 -20.17280 -3.07292 174.40500 -24.74050 -171.75500 -17.30620 2.25845 50.07350 2.08748 0.24435 -0.09268 9.04658 -15.86980 15.53330 -0.65551 -5.85853 1.65141 8.88683 10.75050 5.92223 6.81522 6.18634 1.09898 -1.31809 7.24295 3.98717 -4.00446 -14.39470 -0.16757 8.68790 11.85270 1.15166 -7.29670 2.80298 -0.56151 -0.43761 10.04410 -2.28673 20.60370 -26.24280 3.21219 18.90800 42.43190 -29.09680 
8.78936 101.69800 -47.06540 -0.12956 -5.54206 -4.59598 1.00757 3.31091 0.13805 0.12726 6.56462 0.54248 -0.34319 -4.85262 -4.48713 0.00000 0.00000 0.00000 -6.39477 -20.25720 -3.04162 174.35300 -24.74180 -171.73399 -17.25700 2.27462 50.10130 2.00702 0.24364 -0.08473 9.12129 -15.82280 15.57790 -0.71659 -5.85182 1.66081 8.96036 10.75710 5.92316 6.83938 6.15710 1.09168 -1.33602 7.27626 4.02078 -3.89575 -14.47540 -0.16338 8.76410 11.97410 1.01525 -7.27566 2.81010 -0.55243 -0.43664 9.99170 -2.30436 20.55670 -26.20780 3.19742 18.89200 42.43890 -29.04000 
8.78426 101.70100 -47.06040 -0.14809 -5.51332 -4.60254 1.00854 3.30814 0.13096 0.16148 6.55994 0.52230 -0.37341 -5.00959 -4.35991 0.00000 0.00000 0.00000 -6.41216 -20.34910 -2.99195 174.33800 -24.79530 -171.68600 -17.24970 2.28379 50.06930 1.92062 0.24356 -0.06460 9.20291 -15.75600 15.61850 -0.79535 -5.85872 1.67992 9.06680 10.76460 5.90034 6.86716 6.11921 1.11277 -1.34342 7.30905 4.04064 -3.80800 -14.53080 -0.15961 8.79497 12.03520 0.86175 -7.24946 2.80547 -0.53779 -0.43378 9.94387 -2.33834 20.50330 -26.17470 3.18193 18.88130 42.47210 -28.95410 
